<svg width="41" height="40" viewBox="0 0 41 40" fill="none" xmlns="http://www.w3.org/2000/svg">
<path fill-rule="evenodd" clip-rule="evenodd" d="M19.75 12.9384V11H13C12.4477 11 12 11.4477 12 12V14.3761L14.1847 15.1043C14.4102 15.1795 14.6525 15.1888 14.8831 15.1311L18.8032 14.1511C19.3568 14.0127 19.7461 13.517 19.75 12.9471L19.75 12.9384ZM21.833 15.6063C21.3087 15.4753 20.8515 15.1986 20.5 14.826C20.1485 15.1986 19.6912 15.4753 19.167 15.6063L15.2469 16.5864C14.7395 16.7132 14.2065 16.6927 13.7103 16.5273L12 15.9572V16C12.6643 17.9929 13.0908 20.0896 13.2652 22.183C13.4198 24.0373 13.3837 25.9307 13.1529 27.7771L13.0703 28.438C13.0329 28.7364 13.2656 29 13.5664 29H27.4336C27.7344 29 27.9671 28.7364 27.9297 28.438L27.8471 27.7771C27.6163 25.9307 27.5802 24.0373 27.7348 22.183C27.9092 20.0896 28.3357 17.9929 29 16V15.9102L27.3185 16.5058C26.809 16.6862 26.2577 16.7125 25.7334 16.5814L21.833 15.6063ZM26.8177 15.0918L29 14.3189V12C29 11.4477 28.5523 11 28 11H21.25V12.9384L21.25 12.9471C21.2539 13.517 21.6431 14.0127 22.1968 14.1511L26.0972 15.1262C26.3355 15.1858 26.5861 15.1738 26.8177 15.0918ZM21.25 20C21.25 19.5858 20.9142 19.25 20.5 19.25C20.0858 19.25 19.75 19.5858 19.75 20V21.25H18.5C18.0858 21.25 17.75 21.5858 17.75 22C17.75 22.4142 18.0858 22.75 18.5 22.75H19.75V24.25H18.5C18.0858 24.25 17.75 24.5858 17.75 25C17.75 25.4142 18.0858 25.75 18.5 25.75H19.75V27C19.75 27.4142 20.0858 27.75 20.5 27.75C20.9142 27.75 21.25 27.4142 21.25 27V25.75H22.5C22.9142 25.75 23.25 25.4142 23.25 25C23.25 24.5858 22.9142 24.25 22.5 24.25H21.25V22.75H22.5C22.9142 22.75 23.25 22.4142 23.25 22C23.25 21.5858 22.9142 21.25 22.5 21.25H21.25V20ZM16.0001 27.75C15.5858 27.75 15.2501 27.4142 15.25 27L15.25 21.4861C15.25 20.3356 15.707 19.2323 16.5205 18.4188C16.8982 18.0411 17.3587 17.7565 17.8655 17.5876L18.7628 17.2885C19.1558 17.1575 19.5805 17.3699 19.7115 17.7628C19.8425 18.1558 19.6301 18.5805 19.2372 18.7115L18.3398 19.0106C18.054 19.1059 17.7942 19.2664 17.5812 19.4795C17.049 20.0117 16.75 20.7335 16.75 21.4861L16.75 27C16.7501 27.4142 16.4143 27.75 16.0001 27.75ZM24.2217 27.0001C24.2217 27.4143 24.5575 27.7501 24.9717 27.75C25.386 27.75 25.7217 27.4143 25.7217 27L25.7217 21.4568C25.7217 20.3267 25.2783 19.2416 24.4869 18.4349C24.1069 18.0476 23.6403 17.7562 23.1256 17.5846L22.2372 17.2885C21.8442 17.1575 21.4195 17.3699 21.2885 17.7628C21.1575 18.1558 21.3699 18.5805 21.7628 18.7115L22.6513 19.0077C22.9405 19.1041 23.2027 19.2678 23.4162 19.4854C23.9325 20.0117 24.2217 20.7195 24.2217 21.4568L24.2217 27.0001Z" fill="white"/>
</svg>
