<svg width="41" height="40" viewBox="0 0 41 40" fill="none" xmlns="http://www.w3.org/2000/svg">
<path fill-rule="evenodd" clip-rule="evenodd" d="M25.3232 30.5C27.5444 28.9666 29 26.4033 29 23.5C29 18.8056 25.1944 15 20.5 15C15.8056 15 12 18.8056 12 23.5C12 26.4033 13.4556 28.9666 15.6768 30.5H25.3232ZM17 21.5C16.5858 21.5 16.25 21.8358 16.25 22.25C16.25 22.6642 16.5858 23 17 23H24C24.4142 23 24.75 22.6642 24.75 22.25C24.75 21.8358 24.4142 21.5 24 21.5H17ZM17.25 25C17.25 24.5858 17.5858 24.25 18 24.25H23C23.4142 24.25 23.75 24.5858 23.75 25C23.75 25.4142 23.4142 25.75 23 25.75H18C17.5858 25.75 17.25 25.4142 17.25 25Z" fill="white"/>
<path fill-rule="evenodd" clip-rule="evenodd" d="M15.2214 12.6318C15.533 12.0865 16.1128 11.75 16.7408 11.75H24.2589C24.8869 11.75 25.4667 12.0865 25.7783 12.6318L26.3013 13.547C26.4422 13.7936 26.4317 14.0987 26.2742 14.3351L25.5356 15.443C26.2502 15.8906 26.901 16.4306 27.4713 17.0463L28.3543 15.7218C29.0371 14.6976 29.0827 13.3754 28.4719 12.3066L27.9489 11.3914C27.1922 10.0672 25.784 9.25 24.2589 9.25H16.7408C15.2157 9.25 13.8075 10.0672 13.0508 11.3914L12.5278 12.3066C11.9171 13.3754 11.9626 14.6976 12.6454 15.7218L13.5284 17.0463C14.0987 16.4306 14.7495 15.8906 15.4642 15.443L14.7256 14.3351C14.568 14.0987 14.5575 13.7936 14.6984 13.547L15.2214 12.6318ZM16.0192 16.2755C15.3086 16.7172 14.6679 17.2608 14.1176 17.8859C14.5304 18.2978 15.1894 18.376 15.6932 18.0401C16.2677 17.6571 16.4229 16.881 16.0399 16.3066L16.0192 16.2755ZM26.8821 17.8859C26.3318 17.2608 25.6912 16.7172 24.9805 16.2755L24.9598 16.3066C24.5769 16.881 24.7321 17.6571 25.3065 18.0401C25.8103 18.376 26.4694 18.2978 26.8821 17.8859Z" fill="white"/>
</svg>
