<svg width="41" height="40" viewBox="0 0 41 40" fill="none" xmlns="http://www.w3.org/2000/svg">
<path d="M25.9492 12.7617C25.5521 12.7617 25.1908 12.6673 24.8652 12.4785C24.5397 12.2832 24.2793 12.0228 24.084 11.6973C23.8952 11.3717 23.8008 11.0104 23.8008 10.6133C23.8008 10.2227 23.8952 9.86784 24.084 9.54883C24.2793 9.22982 24.5397 8.97591 24.8652 8.78711C25.1908 8.5918 25.5521 8.49414 25.9492 8.49414C26.3398 8.49414 26.6947 8.5918 27.0137 8.78711C27.3392 8.97591 27.5964 9.22982 27.7852 9.54883C27.9805 9.86784 28.0781 10.2227 28.0781 10.6133C28.0781 11.0104 27.9805 11.3717 27.7852 11.6973C27.5964 12.0228 27.3392 12.2832 27.0137 12.4785C26.6947 12.6673 26.3398 12.7617 25.9492 12.7617ZM21.0566 27.8398C20.7897 27.8398 20.5586 27.7389 20.3633 27.5371C20.168 27.3418 20.0703 27.1074 20.0703 26.834V22.1465L16.7109 18.8066C16.2943 18.3835 16.0404 17.9115 15.9492 17.3906C15.8646 16.8698 15.9395 16.3717 16.1738 15.8965C16.4147 15.4212 16.8151 15.0371 17.375 14.7441L21.0371 12.8301C21.5905 12.5371 22.1309 12.4329 22.6582 12.5176C23.1855 12.6022 23.6315 12.8236 23.9961 13.1816C24.3607 13.5332 24.5788 13.9727 24.6504 14.5L25.0508 17.4492L27.541 18.7188C27.8535 18.875 28.0488 19.0833 28.127 19.3438C28.2116 19.6042 28.2083 19.8451 28.1172 20.0664C28.026 20.3073 27.8405 20.4831 27.5605 20.5938C27.2806 20.7044 26.9518 20.6654 26.5742 20.4766L23.8008 19.0801C23.3971 18.8848 23.1725 18.6048 23.127 18.2402L22.8828 16.5117C22.8633 16.388 22.8079 16.3099 22.7168 16.2773C22.6322 16.2383 22.5378 16.2448 22.4336 16.2969L19.6113 17.7617C19.5202 17.8138 19.4648 17.8854 19.4453 17.9766C19.4258 18.0612 19.4551 18.1491 19.5332 18.2402L21.8477 21.082C22.0039 21.2643 22.082 21.4759 22.082 21.7168V26.834C22.082 27.1074 21.9811 27.3418 21.7793 27.5371C21.5775 27.7389 21.3366 27.8398 21.0566 27.8398ZM13.2344 21.5215L12.8828 20.8867C12.7396 20.6393 12.7331 20.418 12.8633 20.2227C12.9935 20.0273 13.2116 19.9557 13.5176 20.0078L17.1211 20.6328C17.2643 20.6589 17.3815 20.724 17.4727 20.8281C17.5703 20.9258 17.6191 21.0495 17.6191 21.1992C17.6191 21.3555 17.5736 21.4857 17.4824 21.5898C17.3978 21.694 17.2839 21.7591 17.1406 21.7852L15.0312 22.2539C14.6797 22.332 14.3411 22.3158 14.0156 22.2051C13.6901 22.0879 13.4297 21.86 13.2344 21.5215ZM14.9434 21.6191L16.0469 21.2871L18.6543 29.0801L17.5801 29.4512L14.9434 21.6191ZM21.0273 31.3652C20.3242 31.3652 19.6797 31.1927 19.0938 30.8477C18.5143 30.5026 18.0488 30.0371 17.6973 29.4512C17.3522 28.8717 17.1797 28.224 17.1797 27.5078C17.1797 26.7656 17.3717 26.0885 17.7559 25.4766C18.1465 24.8646 18.651 24.4023 19.2695 24.0898V25.5352C19.0026 25.7826 18.7878 26.0788 18.625 26.4238C18.4688 26.7624 18.3906 27.1237 18.3906 27.5078C18.3906 27.9896 18.5111 28.429 18.752 28.8262C18.9928 29.2298 19.3118 29.5521 19.709 29.793C20.1126 30.0339 20.5521 30.1543 21.0273 30.1543C21.5221 30.1543 21.9681 30.0339 22.3652 29.793C22.7689 29.5586 23.0879 29.2396 23.3223 28.8359C23.5632 28.4388 23.6836 27.9961 23.6836 27.5078C23.6836 27.1237 23.612 26.7656 23.4688 26.4336C23.3255 26.1016 23.1237 25.8151 22.8633 25.5742V24.1094C23.4688 24.4414 23.957 24.9069 24.3281 25.5059C24.7057 26.1048 24.8945 26.7721 24.8945 27.5078C24.8945 28.224 24.722 28.8717 24.377 29.4512C24.0384 30.0371 23.5762 30.5026 22.9902 30.8477C22.4108 31.1927 21.7565 31.3652 21.0273 31.3652ZM23.3906 29.1875L25.9004 21.7266C25.9525 21.5833 26.0436 21.4759 26.1738 21.4043C26.304 21.3262 26.4505 21.3132 26.6133 21.3652C26.7565 21.4043 26.8607 21.4987 26.9258 21.6484C26.9974 21.7917 27.0072 21.9349 26.9551 22.0781L24.4844 29.5586L23.3906 29.1875ZM15.666 30.5352L17.9414 29.0312L20.0312 30.4668H22.043L24.1133 29.0312L26.4082 30.5352C26.5384 30.6133 26.6133 30.7207 26.6328 30.8574C26.6523 30.9941 26.6263 31.1178 26.5547 31.2285C26.4831 31.3392 26.3691 31.3945 26.2129 31.3945H15.8516C15.6953 31.3945 15.5781 31.3392 15.5 31.2285C15.4284 31.1243 15.4023 31.0039 15.4219 30.8672C15.4479 30.7305 15.5293 30.6198 15.666 30.5352Z" fill="white"/>
</svg>
