<svg width="41" height="40" viewBox="0 0 41 40" fill="none" xmlns="http://www.w3.org/2000/svg">
<path d="M13.7644 12.0301C13.9183 11.6838 14.1674 11.3884 14.4826 11.1782L14.5463 11.1358C15.1605 10.7264 15.904 10.5577 16.6347 10.6621L18.4937 10.9277C18.8223 10.9746 19.1269 11.1269 19.3616 11.3616V11.3616C19.7556 11.7556 19.9051 12.3323 19.752 12.868L19.1458 14.9896C19.0595 15.2917 18.7834 15.5 18.4692 15.5V15.5C18.2101 15.5 18 15.2899 18 15.0308V15C18 14.7239 17.7761 14.5 17.5 14.5V14.5V14.5C17.2239 14.5 17 14.7239 17 15V15.5V16.1383C17 16.7106 17.0702 17.2808 17.209 17.836L17.291 18.164C17.4298 18.7192 17.5 19.2894 17.5 19.8617V20.2153C17.5 20.4044 17.4768 20.5927 17.431 20.7762L17.1213 22.0149C17.0597 22.2613 17.246 22.5 17.5 22.5V22.5V22.5C17.7939 22.5 18.05 22.3 18.1213 22.0149L18.3171 21.2317C18.4368 20.7529 18.6843 20.3157 19.0333 19.9667L19.1746 19.8254C19.3875 19.6125 19.6543 19.4614 19.9465 19.3884L19.9697 19.3826C20.9773 19.1307 22.0283 19.1057 23.0468 19.3094V19.3094C23.6776 19.4355 24.282 19.6692 24.8335 20.0001L25.8937 20.6362C26.25 20.85 26.7061 20.7939 27 20.5V20.5V20.5C27.254 20.246 27.2017 19.821 26.8937 19.6362L25.4024 18.7414C25.198 18.6188 25.1633 18.3367 25.3318 18.1682V18.1682C25.4432 18.0568 25.5718 17.9641 25.7127 17.8936L25.9374 17.7813C26.9284 17.2858 28.0874 17.2517 29.1058 17.6882L31 18.5V27.5L25.8649 28.3558C23.306 28.7823 20.694 28.7823 18.1351 28.3558V28.3558C16.7147 28.1191 15.3191 27.7524 13.9658 27.2603L13.574 27.1178C11.7856 26.4675 10.7029 24.6472 10.9852 22.7653L11.6181 18.5458C11.8716 16.8563 12.3517 15.2087 13.0455 13.6476L13.7644 12.0301Z" fill="white"/>
</svg>
