<svg width="41" height="40" viewBox="0 0 41 40" fill="none" xmlns="http://www.w3.org/2000/svg">
<path fill-rule="evenodd" clip-rule="evenodd" d="M13.0002 12.5V11C13.0002 10.4477 13.4479 10 14.0002 10H15.0401C15.4383 10 15.7985 10.2362 15.9572 10.6013L16.6721 12.2458C16.8822 12.729 17.2744 13.1098 17.7635 13.3054L20.0992 14.2397C21.3549 14.742 22.6948 15 24.0472 15C25.0026 15 25.9449 15.2224 26.7994 15.6497L27.0791 15.7895C27.9636 16.2318 28.5597 17.0967 28.6581 18.0807C28.8851 20.3512 28.8244 22.6412 28.4775 24.8964L28 28L27.6894 29.2425C27.5781 29.6877 27.1781 30 26.7192 30H24.0003H23.0884C22.7469 30 22.4535 29.7575 22.3892 29.4222L22.3557 29.2478C22.2931 28.9211 22.2929 28.5855 22.3552 28.2587C22.4513 27.7553 22.6162 27.2675 22.8454 26.8091L23.058 26.384C23.352 25.796 23.5904 25.1817 23.77 24.5492L23.9706 23.8429L24.0107 23.7428C24.1688 23.3475 24.25 22.9257 24.25 22.5C24.25 22.0858 23.9142 21.75 23.5 21.75C23.0858 21.75 22.75 22.0858 22.75 22.5C22.75 22.7349 22.7052 22.9676 22.6179 23.1857L22.4712 23.5525C22.163 24.3231 21.4555 24.8614 20.6306 24.9531L18.9889 25.1355C18.3687 25.2044 17.7412 25.1622 17.1358 25.0109L13.6968 24.1511C13.4104 24.0795 13.168 23.9123 13.0002 23.6887V17.8997C13.1893 17.7352 13.4243 17.6256 13.6795 17.5891L16.1061 17.2425C16.5161 17.1839 16.801 16.804 16.7425 16.3939C16.6839 15.9839 16.304 15.699 15.8939 15.7575L13.4674 16.1042C13.3074 16.127 13.1513 16.1633 13.0002 16.2121V12.5ZM20.7963 26.4439C21.1962 26.3995 21.5796 26.2921 21.9348 26.1304L21.6271 26.7457C21.5425 26.915 21.47 27.0901 21.4101 27.2697L21.2503 27.7491C21.0838 28.2485 20.9657 28.7628 20.8977 29.2849C20.8444 29.694 20.4959 30 20.0833 30H14.0001C13.4478 30 13.0001 29.5523 13.0001 29L13 25.5003C13.1076 25.5422 13.2187 25.5778 13.333 25.6063L16.772 26.4661C17.5503 26.6607 18.3571 26.7149 19.1545 26.6263L20.7963 26.4439ZM18 22.25C17.5858 22.25 17.25 22.5858 17.25 23C17.25 23.4142 17.5858 23.75 18 23.75H19C19.4142 23.75 19.75 23.4142 19.75 23C19.75 22.5858 19.4142 22.25 19 22.25H18Z" fill="white"/>
</svg>
