<svg width="41" height="40" viewBox="0 0 41 40" fill="none" xmlns="http://www.w3.org/2000/svg">
<path d="M9.73828 19.002C9.34766 19.002 8.98958 18.9076 8.66406 18.7188C8.34505 18.5299 8.09115 18.276 7.90234 17.957C7.71354 17.6315 7.61914 17.2702 7.61914 16.873C7.61914 16.4824 7.71354 16.1276 7.90234 15.8086C8.09115 15.4831 8.34505 15.2259 8.66406 15.0371C8.98958 14.8418 9.34766 14.7441 9.73828 14.7441C10.1354 14.7441 10.4935 14.8418 10.8125 15.0371C11.138 15.2259 11.3952 15.4831 11.584 15.8086C11.7728 16.1276 11.8672 16.4824 11.8672 16.873C11.8672 17.2702 11.7728 17.6315 11.584 17.957C11.3952 18.276 11.138 18.5299 10.8125 18.7188C10.4935 18.9076 10.1354 19.002 9.73828 19.002ZM16.125 24.8906C15.0117 24.8906 14.0482 24.7572 13.2344 24.4902C12.4271 24.2233 11.7695 23.875 11.2617 23.4453C11.138 23.3477 11.0208 23.2956 10.9102 23.2891C10.806 23.276 10.6725 23.3021 10.5098 23.3672L7.35547 24.7637C7.06901 24.8874 6.79557 24.9199 6.53516 24.8613C6.27474 24.8027 6.07617 24.6693 5.93945 24.4609C5.80924 24.2461 5.78646 23.9727 5.87109 23.6406L6.81836 19.9395C6.88346 19.679 7.03646 19.4772 7.27734 19.334C7.51823 19.1908 7.77539 19.1549 8.04883 19.2266C8.30273 19.2852 8.50456 19.4349 8.6543 19.6758C8.81055 19.9102 8.84961 20.1673 8.77148 20.4473L8.29297 22.1367L9.81641 21.4531C10.5977 21.1081 11.252 20.7109 11.7793 20.2617C12.3066 19.8125 12.8307 19.2786 13.3516 18.6602L14.8164 16.9316H13.3906C13.1042 16.9316 12.8633 16.834 12.668 16.6387C12.4792 16.4434 12.3848 16.2025 12.3848 15.916C12.3848 15.6361 12.4824 15.4017 12.6777 15.2129C12.873 15.0176 13.1107 14.9199 13.3906 14.9199H16.916C17.2025 14.9199 17.4336 15.0111 17.6094 15.1934C17.7917 15.3757 17.8926 15.597 17.9121 15.8574C17.9316 16.1178 17.8438 16.362 17.6484 16.5898L15.1387 19.5684C14.9564 19.7767 14.9271 19.9785 15.0508 20.1738C15.2656 20.5189 15.5521 20.7728 15.9102 20.9355C16.2747 21.0983 16.6784 21.1797 17.1211 21.1797H18.791V16.0039C18.791 15.6654 18.8887 15.4017 19.084 15.2129C19.2793 15.0176 19.5202 14.9199 19.8066 14.9199H26.0566C26.3366 14.9199 26.5742 15.0176 26.7695 15.2129C26.9648 15.4017 27.0625 15.6361 27.0625 15.916C27.0625 16.196 26.9648 16.4368 26.7695 16.6387C26.5742 16.834 26.3366 16.9316 26.0566 16.9316H21.0469L21.6914 22.0586C21.7565 22.5599 21.7142 23.0286 21.5645 23.4648C21.4212 23.8945 21.1348 24.2396 20.7051 24.5C20.2819 24.7604 19.6862 24.8906 18.918 24.8906H16.125ZM26.9062 22.625L22.5801 23.4941C22.6908 23.0319 22.7103 22.5078 22.6387 21.9219L22.502 20.9453L26.5254 20.6133C26.5775 20.6068 26.6263 20.6035 26.6719 20.6035C26.724 20.6035 26.7695 20.6035 26.8086 20.6035H34.1621C34.4421 20.6035 34.6797 20.7012 34.875 20.8965C35.0703 21.0918 35.168 21.3294 35.168 21.6094C35.168 21.8958 35.0703 22.1367 34.875 22.332C34.6797 22.5273 34.4421 22.625 34.1621 22.625H26.9062Z" fill="white"/>
</svg>
