<svg width="41" height="40" viewBox="0 0 41 40" fill="none" xmlns="http://www.w3.org/2000/svg">
<path d="M9.5332 25.0176C9.14258 25.0176 8.8138 24.8841 8.54688 24.6172C8.27995 24.3503 8.14648 24.0247 8.14648 23.6406V16.2578C8.14648 15.8672 8.27995 15.5384 8.54688 15.2715C8.8138 14.998 9.14258 14.8613 9.5332 14.8613C9.93034 14.8613 10.2624 14.998 10.5293 15.2715C10.7962 15.5384 10.9297 15.8672 10.9297 16.2578V23.6406C10.9297 24.0247 10.7962 24.3503 10.5293 24.6172C10.2624 24.8841 9.93034 25.0176 9.5332 25.0176ZM14.1719 27.1758C13.5273 27.1758 13 26.9805 12.5898 26.5898C12.1797 26.1992 11.9746 25.6947 11.9746 25.0762V14.832C11.9746 14.207 12.1797 13.6992 12.5898 13.3086C13 12.918 13.5273 12.7227 14.1719 12.7227C14.8229 12.7227 15.3535 12.918 15.7637 13.3086C16.1738 13.6992 16.3789 14.207 16.3789 14.832V25.0762C16.3789 25.6947 16.1738 26.1992 15.7637 26.5898C15.3535 26.9805 14.8229 27.1758 14.1719 27.1758ZM17.5117 21.834V18.0645H23.5762V21.834H17.5117ZM26.916 27.1758C26.2715 27.1758 25.7441 26.9805 25.334 26.5898C24.9238 26.1992 24.7188 25.6947 24.7188 25.0762V14.832C24.7188 14.207 24.9238 13.6992 25.334 13.3086C25.7441 12.918 26.2715 12.7227 26.916 12.7227C27.5671 12.7227 28.0977 12.918 28.5078 13.3086C28.918 13.6992 29.123 14.207 29.123 14.832V25.0762C29.123 25.6947 28.918 26.1992 28.5078 26.5898C28.0977 26.9805 27.5671 27.1758 26.916 27.1758ZM31.457 25.0176C31.0664 25.0176 30.7376 24.8841 30.4707 24.6172C30.2038 24.3503 30.0703 24.0247 30.0703 23.6406V16.2578C30.0703 15.8672 30.2038 15.5384 30.4707 15.2715C30.7376 14.998 31.0664 14.8613 31.457 14.8613C31.8477 14.8613 32.1764 14.998 32.4434 15.2715C32.7168 15.5384 32.8535 15.8672 32.8535 16.2578V23.6406C32.8535 24.0247 32.7168 24.3503 32.4434 24.6172C32.1764 24.8841 31.8477 25.0176 31.457 25.0176Z" fill="white"/>
</svg>
