<svg width="41" height="40" viewBox="0 0 41 40" fill="none" xmlns="http://www.w3.org/2000/svg">
<path d="M11 12.3005C11 11.277 11.7727 10.4187 12.7906 10.3115L15.9645 9.97742C18.9734 9.6607 22.0117 9.76677 24.9911 10.2926V10.2926C27.1859 10.6799 28.6268 12.8039 28.1752 14.9864L26.2181 24.4459C26.0752 25.1363 26.1174 25.8523 26.3404 26.5212L26.358 26.574C26.4483 26.845 26.6502 27.0644 26.9128 27.1769L29.2695 28.1869C29.7127 28.3769 30 28.8126 30 29.2947V29.2947C30 29.9604 29.4604 30.5 28.7947 30.5H23.781C22.7974 30.5 22 29.7026 22 28.719V28.719C22 28.2502 22.1392 27.7911 22.3993 27.4011V27.4011C22.7905 26.8142 23 26.1236 23 25.4183V24.4721C23 24.1616 23.0723 23.8554 23.2111 23.5777L24 22L24.2465 21.5071C24.3629 21.2741 24.1935 21 23.9331 21V21C23.6677 21 23.425 21.15 23.3063 21.3874L22.6146 22.7708C22.574 22.8521 22.4546 22.841 22.4296 22.7536L22.2004 21.9514C21.7401 20.3405 21.6714 18.6429 22 17V17L22.4302 15.2792C22.4657 15.1374 22.3584 15 22.2122 15H22.1904C22.0652 15 21.9417 15.0292 21.8297 15.0852L21.767 15.1165C21.2802 15.3599 20.924 15.804 20.792 16.332V16.332C20.6047 17.0812 20.1341 17.7287 19.4792 18.138V18.138C17.5463 19.3461 15.2712 19.8883 13.0012 19.6819L11.893 19.5812C11.3872 19.5352 11 19.1112 11 18.6034V12.3005Z" fill="white"/>
</svg>
