<svg width="41" height="40" viewBox="0 0 41 40" fill="none" xmlns="http://www.w3.org/2000/svg">
<path fill-rule="evenodd" clip-rule="evenodd" d="M10.7988 12.336C10.3338 12.4315 10 12.8408 10 13.3155V24.4075C10 24.7728 10.1992 25.1091 10.5197 25.2846L10.8932 25.4892C12.0487 26.1219 12.8186 27.2831 12.9515 28.5938L13.1044 30.1009C13.1562 30.6115 13.5861 31 14.0993 31H26.9007C27.4139 31 27.8438 30.6115 27.8956 30.1009L28.0485 28.5938C28.1814 27.2831 28.9513 26.1219 30.1068 25.4892L30.4803 25.2846C30.8008 25.1091 31 24.7728 31 24.4075V13.3155C31 12.8408 30.6662 12.4315 30.2012 12.336L24.9101 11.2494C24.2031 11.1042 23.6957 10.4819 23.6957 9.76016C23.6957 9.34034 23.3553 9 22.9355 9H18.0645C17.6447 9 17.3043 9.34034 17.3043 9.76016C17.3043 10.4819 16.7969 11.1042 16.0899 11.2494L10.7988 12.336ZM21.25 22C21.25 21.5858 20.9142 21.25 20.5 21.25C20.0858 21.25 19.75 21.5858 19.75 22V28C19.75 28.4142 20.0858 28.75 20.5 28.75C20.9142 28.75 21.25 28.4142 21.25 28V22ZM17 13.25C17.4142 13.25 17.75 13.5858 17.75 14V17.9825C17.7503 17.9941 17.7503 18.0057 17.75 18.0173V20C17.75 20.4142 17.4142 20.75 17 20.75C16.5858 20.75 16.25 20.4142 16.25 20V18.5406L15.8842 18.4186C14.3372 17.903 13.0584 16.7939 12.3292 15.3354C12.1439 14.9649 12.2941 14.5144 12.6646 14.3292C13.0351 14.1439 13.4856 14.2941 13.6708 14.6646C14.205 15.733 15.1292 16.5533 16.25 16.9579V14C16.25 13.5858 16.5858 13.25 17 13.25ZM24 13.25C24.4142 13.25 24.75 13.5858 24.75 14V16.958C25.8708 16.5533 26.795 15.733 27.3292 14.6646C27.5145 14.2941 27.965 14.1439 28.3355 14.3292C28.706 14.5144 28.8561 14.965 28.6709 15.3354C27.9416 16.7939 26.6628 17.903 25.1158 18.4186L24.75 18.5406V20C24.75 20.4142 24.4142 20.75 24 20.75C23.5858 20.75 23.25 20.4142 23.25 20V18.0148C23.2498 18.0049 23.2498 17.9949 23.25 17.985V14C23.25 13.5858 23.5858 13.25 24 13.25Z" fill="white"/>
</svg>
