<svg width="19" height="16" viewBox="0 0 19 16" fill="none" xmlns="http://www.w3.org/2000/svg">
<circle cx="7.06589" cy="3.40164" r="2.49265" stroke="white" stroke-width="1.5"/>
<path d="M1.04363 2.65161C0.629416 2.65161 0.293629 2.9874 0.293629 3.40161C0.293629 3.81582 0.629416 4.15161 1.04363 4.15161V2.65161ZM4.74951 2.65161L1.04363 2.65161V4.15161H4.74951V2.65161Z" fill="white"/>
<path d="M17.8105 3.40161L12.8105 3.40161" stroke="white" stroke-width="1.5" stroke-linecap="round"/>
<circle cx="11.9346" cy="12.5983" r="2.49265" transform="rotate(-180 11.9346 12.5983)" stroke="white" stroke-width="1.5"/>
<path d="M17.9569 13.3483C18.3711 13.3483 18.7069 13.0125 18.7069 12.5983C18.7069 12.1841 18.3711 11.8483 17.9569 11.8483L17.9569 13.3483ZM14.251 13.3483L17.9569 13.3483L17.9569 11.8483L14.251 11.8483L14.251 13.3483Z" fill="white"/>
<path d="M1.18994 12.5983L6.18994 12.5983" stroke="white" stroke-width="1.5" stroke-linecap="round"/>
</svg>
