<svg width="41" height="40" viewBox="0 0 41 40" fill="none" xmlns="http://www.w3.org/2000/svg">
<path d="M20.4902 13.416C20.0996 13.416 19.7415 13.3216 19.416 13.1328C19.097 12.944 18.8398 12.6901 18.6445 12.3711C18.4557 12.0456 18.3613 11.6875 18.3613 11.2969C18.3613 10.8997 18.4557 10.5417 18.6445 10.2227C18.8398 9.89714 19.097 9.63997 19.416 9.45117C19.7415 9.26237 20.0996 9.16797 20.4902 9.16797C20.8809 9.16797 21.2357 9.26237 21.5547 9.45117C21.8802 9.63997 22.1374 9.89714 22.3262 10.2227C22.5215 10.5417 22.6191 10.8997 22.6191 11.2969C22.6191 11.6875 22.5215 12.0456 22.3262 12.3711C22.1374 12.6901 21.8802 12.944 21.5547 13.1328C21.2357 13.3216 20.8809 13.416 20.4902 13.416ZM20.4902 22.5859C20.2884 22.5859 20.1354 22.6608 20.0312 22.8105C19.9271 22.9603 19.8197 23.2109 19.709 23.5625C19.6439 23.7578 19.556 24.0605 19.4453 24.4707C19.3346 24.8809 19.2142 25.3431 19.084 25.8574C18.9538 26.3652 18.8203 26.8796 18.6836 27.4004C18.5534 27.9212 18.4329 28.3965 18.3223 28.8262C18.2116 29.2624 18.1237 29.6009 18.0586 29.8418C17.9023 30.4147 17.5898 30.7012 17.1211 30.7012C16.8086 30.7012 16.5677 30.5807 16.3984 30.3398C16.2357 30.099 16.1999 29.8255 16.291 29.5195C16.304 29.474 16.3464 29.2917 16.418 28.9727C16.4961 28.6536 16.5938 28.25 16.7109 27.7617C16.8281 27.2734 16.9518 26.7461 17.082 26.1797C17.2188 25.6133 17.3457 25.0599 17.4629 24.5195C17.5866 23.9727 17.694 23.4876 17.7852 23.0645C17.8763 22.6348 17.9382 22.319 17.9707 22.1172C18.0228 21.8047 18.0618 21.4206 18.0879 20.9648C18.1204 20.5091 18.1432 20.0404 18.1562 19.5586C18.1693 19.0768 18.1758 18.6341 18.1758 18.2305C18.1823 17.8203 18.1855 17.5111 18.1855 17.3027C18.179 17.0098 18.1074 16.7721 17.9707 16.5898C17.8405 16.401 17.6549 16.2839 17.4141 16.2383C17.3229 16.2188 17.1211 16.1895 16.8086 16.1504C16.4961 16.1048 16.1315 16.056 15.7148 16.0039C15.2982 15.9453 14.8815 15.8867 14.4648 15.8281C14.0482 15.7695 13.6771 15.7174 13.3516 15.6719C13.0326 15.6263 12.821 15.5905 12.7168 15.5645C12.502 15.5189 12.3294 15.4115 12.1992 15.2422C12.0755 15.0729 12.0137 14.8743 12.0137 14.6465C12.0137 14.3665 12.0983 14.1452 12.2676 13.9824C12.4434 13.8197 12.6354 13.7383 12.8438 13.7383C12.9219 13.7383 13 13.748 13.0781 13.7676C13.1628 13.7806 13.2474 13.7969 13.332 13.8164C13.7161 13.8945 14.1914 13.9694 14.7578 14.041C15.3307 14.1126 15.9492 14.181 16.6133 14.2461C17.2773 14.3047 17.9447 14.3535 18.6152 14.3926C19.2858 14.4251 19.9108 14.4414 20.4902 14.4414C21.0762 14.4414 21.7044 14.4219 22.375 14.3828C23.0456 14.3438 23.7096 14.2949 24.3672 14.2363C25.0312 14.1712 25.6465 14.1029 26.2129 14.0312C26.7858 13.9596 27.2643 13.888 27.6484 13.8164C27.7396 13.7969 27.8242 13.7806 27.9023 13.7676C27.9805 13.748 28.0618 13.7383 28.1465 13.7383C28.3483 13.7383 28.5371 13.8197 28.7129 13.9824C28.8887 14.1452 28.9766 14.3665 28.9766 14.6465C28.9766 14.8743 28.9115 15.0697 28.7812 15.2324C28.651 15.3887 28.4785 15.4993 28.2637 15.5645C28.166 15.597 27.9577 15.6393 27.6387 15.6914C27.3197 15.737 26.9486 15.7891 26.5254 15.8477C26.1087 15.8997 25.6888 15.9518 25.2656 16.0039C24.849 16.056 24.4844 16.1048 24.1719 16.1504C23.8594 16.1895 23.6576 16.2188 23.5664 16.2383C23.3255 16.2904 23.14 16.4076 23.0098 16.5898C22.8796 16.7721 22.8145 17.0098 22.8145 17.3027C22.8145 17.5111 22.8145 17.8203 22.8145 18.2305C22.821 18.6341 22.8275 19.0768 22.834 19.5586C22.847 20.0404 22.8665 20.5091 22.8926 20.9648C22.9186 21.4206 22.9577 21.8047 23.0098 22.1172C23.0358 22.319 23.0944 22.6348 23.1855 23.0645C23.2767 23.4876 23.3841 23.9727 23.5078 24.5195C23.6315 25.0599 23.7585 25.6133 23.8887 26.1797C24.0189 26.7461 24.1426 27.2734 24.2598 27.7617C24.377 28.25 24.4746 28.6536 24.5527 28.9727C24.6309 29.2917 24.6764 29.474 24.6895 29.5195C24.7741 29.8255 24.735 30.099 24.5723 30.3398C24.4095 30.5807 24.1719 30.7012 23.8594 30.7012C23.3711 30.7012 23.0618 30.4147 22.9316 29.8418C22.873 29.6009 22.7884 29.2624 22.6777 28.8262C22.5736 28.39 22.4531 27.9115 22.3164 27.3906C22.1862 26.8698 22.0527 26.3522 21.916 25.8379C21.7858 25.3236 21.6654 24.8646 21.5547 24.4609C21.444 24.0573 21.3561 23.7578 21.291 23.5625C21.1868 23.2044 21.0762 22.9538 20.959 22.8105C20.8483 22.6608 20.6921 22.5859 20.4902 22.5859Z" fill="white"/>
</svg>
