<svg width="41" height="40" viewBox="0 0 41 40" fill="none" xmlns="http://www.w3.org/2000/svg">
<path d="M20.5 10V30" stroke="white" stroke-width="2" stroke-linecap="round"/>
<path d="M30 16.5L30 13C30 11.8954 29.1046 11 28 11L13 11C11.8954 11 11 11.8954 11 13V16.5" stroke="white" stroke-width="2" stroke-linecap="round"/>
<path d="M23 30H18" stroke="white" stroke-width="2" stroke-linecap="round"/>
<path d="M17 17C17 15.3431 18.3431 14 20 14H21C22.6569 14 24 15.3431 24 17V21.5C24 22.3284 23.3284 23 22.5 23H18.5C17.6716 23 17 22.3284 17 21.5V17Z" fill="white"/>
<path d="M32.5 19.5C32.5 20.8807 31.3807 22 30 22V22C28.6193 22 27.5 20.8807 27.5 19.5L27.5 16.5C27.5 15.6716 28.1716 15 29 15L31 15C31.8284 15 32.5 15.6716 32.5 16.5L32.5 19.5Z" fill="white"/>
<path d="M13.5 19.5C13.5 20.8807 12.3807 22 11 22V22C9.61929 22 8.5 20.8807 8.5 19.5L8.5 16.5C8.5 15.6716 9.17157 15 10 15L12 15C12.8284 15 13.5 15.6716 13.5 16.5L13.5 19.5Z" fill="white"/>
<path d="M16 26.75C16 25.5074 17.0074 24.5 18.25 24.5H22.75C23.9926 24.5 25 25.5074 25 26.75V26.75C25 27.1642 24.6642 27.5 24.25 27.5H16.75C16.3358 27.5 16 27.1642 16 26.75V26.75Z" fill="white"/>
</svg>
