<svg width="41" height="40" viewBox="0 0 41 40" fill="none" xmlns="http://www.w3.org/2000/svg">
<path fill-rule="evenodd" clip-rule="evenodd" d="M9 13.29C9 12.8269 9.31799 12.4243 9.76853 12.3171L14.1128 11.2835C14.8113 11.1173 15.3043 10.4932 15.3043 9.7752C15.3043 9.34707 15.6514 9 16.0796 9H20.9204C21.3486 9 21.6957 9.34707 21.6957 9.7752C21.6957 10.4932 22.1887 11.1173 22.8872 11.2835L28 12.5L28.8061 12.6612C29.9106 12.8821 30.925 13.425 31.7215 14.2215C31.8998 14.3998 32 14.6417 32 14.8939V24.1169C32 24.5056 31.576 24.7456 31.2428 24.5457L29.5896 23.5538C29.8703 23.2827 30.1069 22.9632 30.2859 22.6053C30.5911 21.9949 30.75 21.3217 30.75 20.6392V19C30.75 18.5858 30.4142 18.25 30 18.25C29.5858 18.25 29.25 18.5858 29.25 19V20.6392C29.25 21.0889 29.1453 21.5323 28.9442 21.9345C28.6634 22.4962 28.1334 22.8918 27.515 23.0013L26.4258 23.1942C26.2689 23.222 26.1081 23.2195 25.9521 23.1869L20.7443 22.0984C20.1651 21.9773 19.7501 21.4666 19.7501 20.8748V15.9858C19.7501 15.7372 19.9149 15.5186 20.154 15.4503C21.7801 14.9857 23.463 14.75 25.1542 14.75H26C26.4142 14.75 26.75 14.4142 26.75 14C26.75 13.5858 26.4142 13.25 26 13.25H25.1542C23.3236 13.25 21.502 13.5051 19.7419 14.008C19.464 14.0874 19.2132 14.2218 19 14.3973C18.7869 14.2218 18.5361 14.0874 18.2581 14.008C16.498 13.5051 14.6764 13.25 12.8459 13.25H12C11.5858 13.25 11.25 13.5858 11.25 14C11.25 14.4142 11.5858 14.75 12 14.75H12.8459C14.537 14.75 16.22 14.9857 17.8461 15.4503C18.0852 15.5186 18.25 15.7372 18.25 15.9858V20.8748C18.25 21.4666 17.835 21.9773 17.2557 22.0984L12.0479 23.1869C11.892 23.2195 11.7312 23.222 11.5742 23.1942L10.485 23.0013C9.86665 22.8918 9.33661 22.4962 9.05579 21.9345C9.03628 21.8955 9.01768 21.8561 9 21.8164V13.29ZM9 24.0119V24.5419C9 24.8328 9.12663 25.1092 9.34687 25.2992L9.53285 25.4596C10.3075 26.1277 10.7967 27.0672 10.8999 28.0849L11.1044 30.1009C11.1562 30.6115 11.5861 31 12.0993 31H13.7517L13.7517 30.2879C13.7517 29.1375 14.2087 28.0342 15.0222 27.2207C15.3999 26.843 15.8604 26.5584 16.3672 26.3894L17.2645 26.0903C17.6575 25.9593 18.0822 26.1717 18.2132 26.5647C18.3442 26.9576 18.1318 27.3824 17.7389 27.5133L16.8415 27.8125C16.5557 27.9078 16.2959 28.0683 16.0829 28.2813C15.5507 28.8135 15.2517 29.5353 15.2517 30.2879L15.2517 31H22.7234L22.7234 30.2586C22.7234 29.5214 22.4342 28.8135 21.9178 28.2873C21.7044 28.0697 21.4422 27.9059 21.153 27.8095L20.2645 27.5134C19.8716 27.3824 19.6592 26.9576 19.7902 26.5647C19.9212 26.1717 20.3459 25.9593 20.7389 26.0903L21.6273 26.3865C22.142 26.558 22.6086 26.8495 22.9886 27.2368C23.78 28.0435 24.2234 29.1285 24.2234 30.2586L24.2234 31H24.9007C25.4139 31 25.8438 30.6115 25.8956 30.1009L26.1001 28.0848C26.2033 27.0672 26.6925 26.1277 27.4672 25.4596L28 25L28.9695 24.0305C28.6074 24.2491 28.204 24.4026 27.7766 24.4783L26.6873 24.6712C26.3421 24.7323 25.9884 24.7269 25.6452 24.6552L20.4374 23.5666C19.8706 23.4482 19.3753 23.1601 19 22.7623C18.6247 23.1601 18.1294 23.4482 17.5626 23.5666L12.3548 24.6552C12.0117 24.7269 11.6579 24.7323 11.3127 24.6712L10.2234 24.4783C9.78397 24.4005 9.36991 24.2404 9 24.0119Z" fill="white"/>
</svg>
