<svg width="41" height="40" viewBox="0 0 41 40" fill="none" xmlns="http://www.w3.org/2000/svg">
<path fill-rule="evenodd" clip-rule="evenodd" d="M13.5 9C11.8431 9 10.5 10.3431 10.5 12V27C10.5 27.5439 10.9342 27.9863 11.4748 27.9997L12.0558 26.4019C12.3073 25.7104 12.9645 25.25 13.7004 25.25H17.323C18.0385 25.25 18.682 25.6857 18.9478 26.3501L19.6078 28H21.5548L22.273 26.6832C22.7549 25.7997 23.6809 25.25 24.6873 25.25H28.25L28.25 23.25L23 23.25C22.5858 23.25 22.25 22.9142 22.25 22.5C22.25 22.0858 22.5858 21.75 23 21.75L26.8965 21.75L28.8232 19.8232C29.1161 19.5304 29.591 19.5304 29.8838 19.8232C30.1767 20.1161 30.1767 20.591 29.8838 20.8839L28.9387 21.8291C29.4127 22.0067 29.75 22.464 29.75 23L29.75 25.25V25.2826V26V27.9685C30.1813 27.8575 30.5 27.466 30.5 27V12C30.5 10.3431 29.1569 9 27.5 9H13.5ZM28.25 28V26.75H24.6873C24.2298 26.75 23.8089 26.9999 23.5899 27.4014L23.2634 28H28.25ZM17.9922 28H13.0708L13.4655 26.9146C13.5014 26.8158 13.5953 26.75 13.7004 26.75H17.323C17.4252 26.75 17.5171 26.8122 17.5551 26.9072L17.9922 28ZM30.75 29.5H30.5H29H12H10.5H10.25C9.83579 29.5 9.5 29.8358 9.5 30.25C9.5 30.6642 9.83579 31 10.25 31H30.75C31.1642 31 31.5 30.6642 31.5 30.25C31.5 29.8358 31.1642 29.5 30.75 29.5ZM14.4 22H14.9H16.15H16.65V23H16.15H14.9H14.4V22ZM13 21.5C13 21.2239 12.7761 21 12.5 21C12.2239 21 12 21.2239 12 21.5V23.5C12 23.7761 12.2239 24 12.5 24C12.7761 24 13 23.7761 13 23.5V21.5ZM13.7 20.75C13.9761 20.75 14.2 20.9739 14.2 21.25V23.75C14.2 24.0261 13.9761 24.25 13.7 24.25C13.4239 24.25 13.2 24.0261 13.2 23.75V21.25C13.2 20.9739 13.4239 20.75 13.7 20.75ZM17.85 21.25C17.85 20.9739 17.6261 20.75 17.35 20.75C17.0739 20.75 16.85 20.9739 16.85 21.25V23.75C16.85 24.0261 17.0739 24.25 17.35 24.25C17.6261 24.25 17.85 24.0261 17.85 23.75V21.25ZM18.55 21C18.8261 21 19.05 21.2239 19.05 21.5V23.5C19.05 23.7761 18.8261 24 18.55 24C18.2739 24 18.05 23.7761 18.05 23.5V21.5C18.05 21.2239 18.2739 21 18.55 21ZM17.25 13H18.25H22.75H23.75V14H22.75H18.25H17.25V13ZM12.25 12.75C11.9739 12.75 11.75 12.9739 11.75 13.25V13.75C11.75 14.0261 11.9739 14.25 12.25 14.25H12.75V13.75V13.25V12.75H12.25ZM29.25 13.75C29.25 14.0261 29.0261 14.25 28.75 14.25H28.25V13.75V13.25V12.75H28.75C29.0261 12.75 29.25 12.9739 29.25 13.25V13.75ZM15.5 15.3901V15.5H16V11.5H15.5V11.6099V15.3901ZM15 10.5C14.7239 10.5 14.5 10.7239 14.5 11V11.2L13.4019 11.4196C13.1682 11.4664 13 11.6716 13 11.9099V15.0901C13 15.3284 13.1682 15.5336 13.4019 15.5804L14.5 15.8V16C14.5 16.2761 14.7239 16.5 15 16.5H16.5C16.7761 16.5 17 16.2761 17 16V11C17 10.7239 16.7761 10.5 16.5 10.5H15ZM14.5 12.2198L14 12.3198V14.6802L14.5 14.7802V12.2198ZM25 15.5V11.5H25.5V11.6099V15.3901V15.5H25ZM26.5 11V11.2L27.5981 11.4196C27.8318 11.4664 28 11.6716 28 11.9099V15.0901C28 15.3284 27.8318 15.5336 27.5981 15.5804L26.5 15.8V16C26.5 16.2761 26.2761 16.5 26 16.5H24.5C24.2239 16.5 24 16.2761 24 16V11C24 10.7239 24.2239 10.5 24.5 10.5H26C26.2761 10.5 26.5 10.7239 26.5 11ZM26.5 14.7802V12.2198L27 12.3198V14.6802L26.5 14.7802Z" fill="white"/>
</svg>
