<svg width="41" height="40" viewBox="0 0 41 40" fill="none" xmlns="http://www.w3.org/2000/svg">
<path d="M20.5 12.3711C20.1094 12.3711 19.7513 12.2767 19.4258 12.0879C19.1068 11.8926 18.8496 11.6322 18.6543 11.3066C18.4655 10.9811 18.3711 10.6198 18.3711 10.2227C18.3711 9.83203 18.4655 9.47721 18.6543 9.1582C18.8496 8.83919 19.1068 8.58529 19.4258 8.39648C19.7513 8.20117 20.1094 8.10352 20.5 8.10352C20.8906 8.10352 21.2487 8.20117 21.5742 8.39648C21.8997 8.58529 22.1569 8.83919 22.3457 9.1582C22.541 9.47721 22.6387 9.83203 22.6387 10.2227C22.6387 10.6198 22.541 10.9811 22.3457 11.3066C22.1569 11.6322 21.8997 11.8926 21.5742 12.0879C21.2487 12.2767 20.8906 12.3711 20.5 12.3711ZM18.3613 19.6758V17.332C18.3613 17.2474 18.3125 17.1953 18.2148 17.1758C18.1237 17.1562 18.0521 17.1986 18 17.3027L15.2559 22.8398C15.1387 23.0872 14.9499 23.2565 14.6895 23.3477C14.4355 23.4323 14.1882 23.4095 13.9473 23.2793C13.7129 23.1621 13.5501 22.9766 13.459 22.7227C13.3743 22.4622 13.3939 22.2083 13.5176 21.9609L17.1016 14.7051C17.3164 14.2754 17.6159 13.9401 18 13.6992C18.3906 13.4583 18.8366 13.3379 19.3379 13.3379H21.6719C22.1732 13.3379 22.6159 13.4583 23 13.6992C23.3906 13.9401 23.6934 14.2754 23.9082 14.7051L27.4922 21.9609C27.6159 22.2083 27.6322 22.4622 27.541 22.7227C27.4564 22.9766 27.2969 23.1621 27.0625 23.2793C26.8216 23.4095 26.571 23.4323 26.3105 23.3477C26.0566 23.2565 25.8678 23.0872 25.7441 22.8398L23.0195 17.3027C22.9674 17.1986 22.8926 17.1595 22.7949 17.1855C22.7038 17.2051 22.6582 17.2572 22.6582 17.3418V19.6758H18.3613ZM16.5449 31.7168C16.304 31.6712 16.099 31.5378 15.9297 31.3164C15.7669 31.1016 15.7214 30.8216 15.793 30.4766L16.7207 26.1504C16.7337 26.0592 16.7533 25.9811 16.7793 25.916L17.9512 22.6445H23.0684L24.2207 25.916C24.2402 25.9551 24.2533 25.9941 24.2598 26.0332C24.2728 26.0658 24.2793 26.1048 24.2793 26.1504L25.207 30.4766C25.2786 30.8086 25.2396 31.0788 25.0898 31.2871C24.9401 31.502 24.7513 31.6419 24.5234 31.707C24.2826 31.7656 24.0384 31.7331 23.791 31.6094C23.5436 31.4857 23.3841 31.2513 23.3125 30.9062L22.3945 26.707L20.5 23.2305L18.6152 26.707L17.6973 30.9062C17.6257 31.2383 17.4727 31.4694 17.2383 31.5996C17.0104 31.7298 16.7793 31.7689 16.5449 31.7168ZM10.8418 24.4414C10.6465 24.4414 10.487 24.3796 10.3633 24.2559C10.2461 24.1322 10.1875 23.9727 10.1875 23.7773V18.5332C10.1875 18.3379 10.2461 18.1816 10.3633 18.0645C10.487 17.9408 10.6465 17.8789 10.8418 17.8789H11.4082C11.6035 17.8789 11.7598 17.9408 11.877 18.0645C12.0007 18.1816 12.0625 18.3379 12.0625 18.5332V23.7773C12.0625 23.9727 12.0007 24.1322 11.877 24.2559C11.7598 24.3796 11.6035 24.4414 11.4082 24.4414H10.8418ZM29.582 24.4414C29.3867 24.4414 29.2272 24.3796 29.1035 24.2559C28.9863 24.1322 28.9277 23.9727 28.9277 23.7773V18.5332C28.9277 18.3379 28.9863 18.1816 29.1035 18.0645C29.2272 17.9408 29.3867 17.8789 29.582 17.8789H30.1582C30.3535 17.8789 30.5098 17.9408 30.627 18.0645C30.7441 18.1816 30.8027 18.3379 30.8027 18.5332V23.7773C30.8027 23.9727 30.7441 24.1322 30.627 24.2559C30.5098 24.3796 30.3535 24.4414 30.1582 24.4414H29.582ZM9.38672 21.6973C9.23047 21.6973 9.10026 21.6452 8.99609 21.541C8.89193 21.4368 8.83984 21.3099 8.83984 21.1602C8.83984 21.0104 8.89193 20.8835 8.99609 20.7793C9.10026 20.6686 9.23047 20.6133 9.38672 20.6133H31.6133C31.763 20.6133 31.89 20.6686 31.9941 20.7793C32.0983 20.8835 32.1504 21.0104 32.1504 21.1602C32.1504 21.3099 32.0983 21.4368 31.9941 21.541C31.89 21.6452 31.763 21.6973 31.6133 21.6973H9.38672Z" fill="white"/>
</svg>
