<svg width="41" height="40" viewBox="0 0 41 40" fill="none" xmlns="http://www.w3.org/2000/svg">
<path d="M13.2441 21.7949C12.8991 21.7949 12.5866 21.7135 12.3066 21.5508C12.0267 21.3815 11.8021 21.1569 11.6328 20.877C11.4701 20.597 11.3887 20.2878 11.3887 19.9492C11.3887 19.6042 11.4701 19.2917 11.6328 19.0117C11.8021 18.7318 12.0267 18.5104 12.3066 18.3477C12.5866 18.1784 12.8991 18.0938 13.2441 18.0938C13.5827 18.0938 13.8919 18.1784 14.1719 18.3477C14.4518 18.5104 14.6732 18.7318 14.8359 19.0117C15.0052 19.2917 15.0898 19.6042 15.0898 19.9492C15.0898 20.2878 15.0052 20.597 14.8359 20.877C14.6732 21.1569 14.4518 21.3815 14.1719 21.5508C13.8919 21.7135 13.5827 21.7949 13.2441 21.7949ZM20.5 21.7949C20.1549 21.7949 19.8424 21.7135 19.5625 21.5508C19.2826 21.3815 19.0579 21.1569 18.8887 20.877C18.7259 20.597 18.6445 20.2878 18.6445 19.9492C18.6445 19.6042 18.7259 19.2917 18.8887 19.0117C19.0579 18.7318 19.2826 18.5104 19.5625 18.3477C19.8424 18.1784 20.1549 18.0938 20.5 18.0938C20.8385 18.0938 21.1478 18.1784 21.4277 18.3477C21.7077 18.5104 21.929 18.7318 22.0918 19.0117C22.2611 19.2917 22.3457 19.6042 22.3457 19.9492C22.3457 20.2878 22.2611 20.597 22.0918 20.877C21.929 21.1569 21.7077 21.3815 21.4277 21.5508C21.1478 21.7135 20.8385 21.7949 20.5 21.7949ZM27.7559 21.7949C27.4108 21.7949 27.0983 21.7135 26.8184 21.5508C26.5384 21.3815 26.3138 21.1569 26.1445 20.877C25.9818 20.597 25.9004 20.2878 25.9004 19.9492C25.9004 19.6042 25.9818 19.2917 26.1445 19.0117C26.3138 18.7318 26.5384 18.5104 26.8184 18.3477C27.0983 18.1784 27.4108 18.0938 27.7559 18.0938C28.0944 18.0938 28.4036 18.1784 28.6836 18.3477C28.9635 18.5104 29.1882 18.7318 29.3574 19.0117C29.5267 19.2917 29.6113 19.6042 29.6113 19.9492C29.6113 20.2878 29.5267 20.597 29.3574 20.877C29.1882 21.1569 28.9635 21.3815 28.6836 21.5508C28.4036 21.7135 28.0944 21.7949 27.7559 21.7949Z" fill="white"/>
</svg>
