<svg width="41" height="40" viewBox="0 0 41 40" fill="none" xmlns="http://www.w3.org/2000/svg">
<path d="M14 16L14 24.5C14 28.0899 16.9101 31 20.5 31V31C24.0899 31 27 28.0899 27 24.5V19" stroke="white"/>
<path d="M12.5 10.25V10.25C11.4977 10.25 10.9929 11.4593 11.6977 12.1719L13.2834 13.7752C13.677 14.1732 14.3207 14.1706 14.7111 13.7693L16.2976 12.1388C16.9838 11.4335 16.484 10.25 15.5 10.25V10.25" stroke="white"/>
<line x1="13" y1="10.25" x2="15" y2="10.25" stroke="white" stroke-width="2"/>
<path d="M12.5 14.5V14.5C13.3689 15.2241 14.6311 15.2241 15.5 14.5V14.5V15.75H12.5V14.5Z" fill="white"/>
<path d="M25.4531 13.25V13.25C24.4508 13.25 23.946 14.4593 24.6508 15.1719L26.2365 16.7752C26.6302 17.1732 27.2739 17.1706 27.6643 16.7693L29.2507 15.1388C29.9369 14.4335 29.4372 13.25 28.4531 13.25V13.25" stroke="white"/>
<line x1="25.9531" y1="13.25" x2="27.9531" y2="13.25" stroke="white" stroke-width="2"/>
<path d="M25.4531 17.5V17.5C26.322 18.2241 27.5842 18.2241 28.4531 17.5V17.5V18.75H25.4531V17.5Z" fill="white"/>
</svg>
